<svg width="280" height="312" viewBox="0 0 280 312" fill="none" xmlns="http://www.w3.org/2000/svg">
<path d="M122.356 121.694C122.446 119.626 120.795 117.251 118.474 117.788C109.64 119.779 101.564 125.843 95.6643 133.622C94.6336 134.877 93.7122 136.245 92.8919 137.663C89.0674 143.87 86.5552 150.84 86.0128 157.591C85.8924 159.185 86.6853 160.305 87.7564 160.91C88.2318 162.965 90.106 164.529 92.3871 163.567C101.02 159.93 110.115 156.82 115.638 148.694C120.991 140.829 121.91 130.967 122.356 121.694Z" fill="#DDE8FB"/>
<path d="M159.029 194.58C167.661 190.943 176.757 187.833 182.28 179.706C187.646 171.825 188.583 161.976 189.029 152.703C189.119 150.635 187.468 148.26 185.147 148.797C176.313 150.788 168.236 156.852 162.337 164.631C161.306 165.886 160.385 167.253 159.565 168.671C155.74 174.878 153.228 181.848 152.686 188.6C152.565 190.194 153.358 191.314 154.429 191.919C154.891 193.992 156.748 195.542 159.029 194.58Z" fill="#DDE8FB"/>
<path d="M232.896 48.3848C233.003 46.3302 231.335 43.9418 229.013 44.4787C220.18 46.4697 212.103 52.5343 206.204 60.3128C205.173 61.5678 204.252 62.9356 203.431 64.3534C199.607 70.5605 197.095 77.5305 196.552 84.282C196.432 85.8762 197.225 86.9964 198.296 87.6007C198.771 89.6563 200.645 91.2199 202.927 90.2581C211.559 86.6207 220.654 83.5106 226.177 75.3844C231.53 67.5204 232.45 57.6576 232.896 48.3848Z" fill="#DDE8FB"/>
<path d="M212.052 129.891C208.227 136.098 205.715 143.068 205.173 149.819C205.052 151.414 205.845 152.534 206.916 153.138C207.392 155.194 209.266 156.757 211.547 155.795C220.18 152.158 229.275 149.048 234.798 140.922C240.164 133.04 241.101 123.191 241.547 113.918C241.637 111.85 239.986 109.475 237.665 110.012C228.831 112.003 220.755 118.067 214.855 125.846C213.798 127.136 212.872 128.473 212.052 129.891Z" fill="#DDE8FB"/>
<path d="M141.22 76.7643C141.099 78.3585 141.892 79.4786 142.963 80.0829C143.439 82.1385 145.313 83.7022 147.594 82.7403C156.226 79.103 165.322 75.9928 170.845 67.8667C176.211 59.9849 177.148 50.1356 177.594 40.8628C177.684 38.7947 176.033 36.4199 173.712 36.9568C164.878 38.9478 156.801 45.0123 150.902 52.7909C149.871 54.0459 148.95 55.4136 148.13 56.8315C144.243 63.0469 141.745 69.9991 141.22 76.7643Z" fill="#DDE8FB"/>
<path d="M64.2377 167.897C64.3271 165.829 62.6764 163.454 60.3551 163.991C51.5214 165.982 43.445 172.046 37.5457 179.825C36.515 181.08 35.5936 182.448 34.7733 183.866C30.9488 190.073 28.4365 197.043 27.8942 203.794C27.7738 205.388 28.5667 206.509 29.6378 207.113C30.1132 209.168 31.9873 210.732 34.2683 209.77C42.9008 206.133 51.9962 203.023 57.5193 194.897C62.8722 187.033 63.7915 177.17 64.2377 167.897Z" fill="#DDE8FB"/>
<path d="M146.746 231.783C146.836 229.715 145.185 227.34 142.864 227.877C134.03 229.868 125.954 235.932 120.054 243.711C119.024 244.966 118.102 246.333 117.282 247.751C113.458 253.958 110.945 260.928 110.403 267.68C110.283 269.274 111.075 270.394 112.146 270.999C112.622 273.054 114.496 274.618 116.777 273.656C125.41 270.019 134.505 266.908 140.028 258.782C145.381 250.918 146.3 241.056 146.746 231.783Z" fill="#DDE8FB"/>
<path d="M81.7045 225.579C81.7939 223.511 80.1433 221.136 77.8221 221.673C68.9884 223.664 60.9117 229.729 55.0124 237.507C53.9818 238.762 53.0605 240.13 52.2401 241.548C48.4156 247.755 45.9034 254.725 45.3611 261.476C45.2407 263.071 46.0334 264.191 47.1045 264.795C47.58 266.851 49.4542 268.414 51.7352 267.452C60.3677 263.815 69.4631 260.705 74.9862 252.579C80.3525 244.697 81.2583 234.852 81.7045 225.579Z" fill="#DDE8FB"/>
<path d="M138.835 165.194C119.893 163.324 108.751 186.73 105.732 202.391C105.384 204.175 106.296 205.359 107.562 205.889C108.056 207.368 109.514 208.526 111.268 208.337C119.54 207.458 126.939 204.019 132.299 197.397C138.97 189.148 137.802 179.328 141.624 169.997C142.468 167.923 141.066 165.403 138.835 165.194ZM133.329 173.924C132.861 173.477 132.281 173.141 131.647 172.988C132.307 172.739 132.975 172.553 133.647 172.399C133.541 172.907 133.421 173.433 133.329 173.924ZM126.802 192.944C127.951 191.275 128.871 189.541 129.656 187.729C129.901 187.441 130.094 187.112 130.321 186.81C129.4 189.134 128.221 191.174 126.802 192.944Z" fill="#DDE8FB"/>
<path d="M145.651 143.694C146.145 147.564 151.331 147.389 152.351 144.382C163.164 144.037 168.167 139.726 175.413 131.782C183.551 122.84 182.218 112.246 184.316 100.933C184.752 98.5146 182.503 96.9698 180.433 97.0264C169.351 97.3609 162.127 102.848 156.408 112.116C149.534 123.246 143.963 130.407 145.651 143.694Z" fill="#DDE8FB"/>
</svg>
